<svg xmlns="http://www.w3.org/2000/svg" viewBox="730 540 1420 310"><g transform="translate(0.000000,1400.000000) scale(0.100000,-0.100000)"
fill="#ffffff" stroke="none">
<path d="M7419 8481 l-24 -19 0 -110 c0 -94 3 -113 19 -131 l19 -21 6967 0
6967 0 19 21 c16 18 19 37 19 131 l0 110 -24 19 -23 19 -6958 0 -6958 0 -23
-19z"/>
<path d="M9230 7902 l-25 -20 -3 -814 c-2 -447 0 -828 3 -847 4 -18 17 -44 30
-57 l24 -24 189 0 190 0 68 26 c48 18 99 28 167 33 l98 6 39 42 c21 23 50 45
64 48 14 3 37 7 50 10 34 7 161 136 184 187 11 24 33 60 51 82 17 21 40 68 51
105 11 36 31 83 45 104 32 46 45 120 45 252 0 142 -13 205 -55 273 -21 34 -35
70 -35 89 0 50 -17 82 -56 105 -26 15 -44 37 -60 73 -14 34 -40 66 -69 91 -26
22 -68 58 -94 80 -25 23 -62 49 -81 59 -19 9 -52 34 -73 54 l-38 36 -112 7
c-62 4 -216 10 -342 14 l-230 6 -25 -20z m545 -413 c22 -6 55 -24 73 -40 18
-16 50 -38 72 -49 49 -25 65 -49 79 -119 7 -34 22 -66 42 -89 42 -47 49 -71
49 -162 l0 -78 -39 -52 c-22 -29 -42 -68 -45 -88 -11 -61 -25 -87 -59 -106
-18 -11 -48 -34 -69 -54 -57 -55 -185 -71 -233 -29 l-26 22 0 395 c0 217 3
403 7 414 8 20 57 45 89 46 11 0 38 -5 60 -11z"/>
<path d="M7425 7888 l-27 -24 1 -822 c1 -453 5 -830 8 -840 3 -9 15 -27 26
-39 l20 -23 456 0 c285 0 470 4 493 11 63 17 73 48 72 224 0 162 -7 189 -50
205 -14 6 -148 10 -299 10 l-273 0 -23 19 -24 19 -2 618 -1 617 -21 21 -22 21
-153 3 -153 3 -28 -23z"/>
<path d="M8638 7895 c-15 -8 -30 -24 -33 -36 -10 -30 -3 -1552 6 -1618 5 -34
17 -63 30 -78 l22 -23 138 0 c78 0 148 5 162 11 13 6 31 24 41 40 l17 29 0
820 c0 451 -3 825 -7 831 -3 6 -21 17 -40 25 -47 20 -299 19 -336 -1z"/>
<path d="M11295 7901 c-71 -4 -138 -10 -147 -15 -9 -4 -24 -19 -33 -33 -9 -14
-38 -34 -63 -45 -26 -12 -65 -36 -87 -55 -22 -19 -60 -49 -85 -66 -32 -23 -53
-50 -75 -95 -17 -35 -46 -75 -67 -92 -29 -24 -39 -41 -48 -84 -6 -30 -24 -74
-41 -99 -41 -62 -52 -135 -47 -315 l5 -152 32 -63 c18 -34 42 -87 52 -117 11
-30 35 -71 54 -90 18 -19 43 -60 55 -91 15 -42 30 -64 58 -83 21 -14 48 -40
60 -56 16 -21 39 -34 79 -46 40 -12 67 -28 97 -59 l41 -42 100 -6 c58 -3 127
-14 165 -26 82 -26 122 -26 196 0 38 13 96 23 164 26 l105 6 40 43 c27 29 54
46 82 54 27 7 66 31 105 65 35 30 66 55 70 55 3 0 21 30 38 68 18 37 47 84 66
104 18 20 38 56 44 80 7 23 28 73 48 110 l35 69 5 158 c3 88 2 179 -2 203 -4
25 -22 69 -41 98 -19 29 -39 77 -45 106 -9 43 -19 60 -50 87 -22 18 -49 55
-60 83 -26 61 -42 78 -105 119 -27 17 -56 40 -64 49 -8 10 -40 30 -70 46 -31
15 -69 42 -85 59 -16 17 -43 33 -60 35 -56 9 -389 13 -521 7z m387 -411 c21
-6 52 -23 69 -38 18 -15 53 -38 78 -52 46 -25 59 -48 76 -132 3 -15 23 -48 45
-73 l40 -46 0 -95 c0 -98 -6 -118 -46 -167 -13 -15 -28 -47 -34 -70 -19 -74
-32 -98 -64 -114 -17 -8 -47 -32 -67 -53 -46 -46 -66 -50 -279 -50 -211 0
-233 4 -273 47 -18 19 -48 43 -68 53 -37 19 -49 41 -69 117 -6 23 -21 55 -34
70 -40 48 -46 69 -46 161 0 79 3 93 25 123 52 71 65 95 65 117 0 47 27 90 72
113 24 11 55 32 69 46 46 43 92 52 254 53 83 0 167 -5 187 -10z"/>
<path d="M12624 7886 l-28 -23 -8 -214 c-5 -132 -15 -258 -28 -329 -51 -300
-70 -572 -61 -895 7 -243 11 -267 56 -282 28 -9 266 -10 292 -1 12 4 29 21 38
39 15 27 17 69 16 300 -1 212 1 275 13 302 19 46 34 54 57 30 14 -13 22 -42
28 -94 8 -68 31 -129 50 -129 16 0 41 -62 41 -103 0 -81 18 -149 49 -182 16
-16 43 -57 59 -91 18 -36 40 -64 54 -70 26 -11 261 -11 295 0 12 4 38 28 57
54 20 26 50 64 67 84 l32 37 6 88 c7 78 12 95 44 147 32 51 37 69 38 120 0 85
17 130 50 134 16 2 32 -5 44 -18 22 -24 22 -31 15 -365 -4 -186 -2 -214 13
-243 10 -18 28 -36 40 -40 28 -10 264 -8 295 2 12 4 29 21 38 38 13 26 15 86
14 436 0 224 -5 439 -11 477 -6 39 -24 124 -40 189 -36 144 -51 289 -47 454
l3 124 -28 24 -28 24 -150 0 c-165 0 -182 -4 -235 -62 -55 -59 -64 -79 -64
-143 0 -84 -15 -128 -60 -181 l-40 -45 0 -72 c0 -75 -21 -139 -54 -166 -32
-27 -47 -71 -50 -151 -2 -54 -8 -87 -20 -106 -16 -23 -23 -26 -59 -21 -31 4
-50 15 -73 39 -28 31 -32 43 -38 118 -7 87 -14 105 -70 175 -26 32 -31 48 -36
119 -6 81 -23 129 -56 157 -28 23 -44 75 -44 144 l0 66 -47 50 c-71 76 -80 79
-252 79 l-150 0 -27 -24z"/>
<path d="M15128 7900 c-88 -16 -121 -62 -129 -182 l-6 -88 -37 -44 c-46 -57
-56 -84 -56 -156 0 -72 -11 -103 -55 -151 -39 -43 -42 -54 -48 -156 -2 -40
-11 -81 -18 -92 -8 -10 -27 -36 -44 -56 -26 -34 -30 -47 -35 -129 -6 -97 -16
-127 -54 -151 -33 -22 -44 -56 -49 -154 -4 -65 -10 -90 -26 -110 -65 -80 -74
-101 -74 -160 1 -66 23 -116 55 -127 35 -11 270 -11 296 0 13 6 35 31 48 58
13 26 37 62 53 80 43 50 51 71 51 135 1 86 15 134 49 165 42 38 51 59 51 125
0 77 15 127 50 167 40 45 50 76 50 156 0 95 23 140 64 124 17 -7 29 -37 50
-127 9 -41 28 -85 47 -112 28 -39 32 -54 38 -139 7 -86 11 -100 38 -134 48
-60 56 -81 63 -183 l6 -97 40 -45 c23 -26 47 -68 57 -100 10 -30 25 -61 33
-68 13 -10 54 -13 168 -12 l151 1 21 26 c16 17 24 45 29 90 8 75 -4 122 -41
157 -42 39 -55 76 -63 180 l-8 99 -32 40 c-46 58 -61 100 -61 178 0 71 2 68
-66 159 -22 30 -33 85 -34 158 0 64 -13 97 -65 161 l-29 37 -6 91 c-5 96 -6
99 -54 160 -25 33 -32 52 -38 114 -10 113 -13 115 -195 117 -81 1 -164 -1
-185 -5z"/>
<path d="M17629 7881 l-29 -29 0 -789 c0 -437 5 -805 10 -827 5 -22 17 -51 28
-65 l19 -26 150 -3 150 -3 27 22 c15 12 32 32 37 46 10 27 14 1629 4 1655 -14
37 -66 48 -220 48 l-147 0 -29 -29z"/>
<path d="M19352 7902 c-12 -2 -30 -14 -38 -27 -14 -21 -16 -72 -15 -372 1
-191 4 -368 7 -393 8 -62 -16 -120 -49 -120 -27 0 -51 23 -62 60 -16 57 -110
238 -141 270 -25 26 -36 50 -44 90 -7 41 -17 61 -37 77 -68 53 -73 61 -73 105
-1 51 -14 76 -57 112 -30 26 -38 42 -57 129 -4 16 -20 36 -39 47 l-32 20 -193
0 -193 0 -24 -25 -25 -24 0 -806 c0 -857 -1 -845 47 -888 17 -15 42 -18 166
-19 223 -2 209 -34 206 476 -2 396 1 426 35 439 24 9 54 -21 61 -63 4 -22 17
-54 31 -72 13 -18 30 -43 39 -54 9 -12 20 -46 24 -75 7 -41 15 -58 37 -75 65
-51 71 -60 78 -114 6 -44 14 -60 42 -87 21 -19 46 -59 60 -95 13 -33 31 -69
39 -78 9 -10 30 -46 48 -81 28 -57 38 -67 87 -90 l55 -27 148 -4 148 -5 25 20
c14 11 30 31 35 46 7 16 10 324 10 845 l0 820 -20 20 c-18 17 -35 19 -163 20
-79 1 -153 0 -166 -2z"/>
<path d="M20460 7899 c-19 -4 -39 -14 -46 -23 -6 -9 -14 -52 -17 -96 -7 -89
-15 -110 -61 -158 l-31 -33 -6 -84 c-5 -85 -6 -88 -75 -183 -11 -14 -20 -56
-25 -112 -9 -97 -15 -114 -63 -174 l-31 -38 -5 -89 c-5 -77 -9 -92 -32 -116
-50 -55 -61 -82 -69 -175 l-7 -90 -31 -37 c-53 -60 -64 -96 -69 -217 l-4 -112
18 -10 c11 -6 92 -12 181 -14 140 -3 165 -1 179 13 9 9 25 49 35 90 11 40 32
88 48 108 43 55 51 75 51 133 1 93 12 126 72 201 18 22 24 46 28 105 5 66 11
86 43 137 23 39 42 86 52 134 17 81 28 101 56 101 35 0 49 -38 49 -136 l0 -91
33 -43 c17 -24 38 -51 46 -62 8 -11 16 -55 19 -111 5 -89 25 -155 53 -173 26
-16 49 -90 49 -159 0 -49 5 -78 17 -95 33 -49 107 -131 126 -142 30 -16 276
-17 308 -1 58 27 65 134 13 199 -16 20 -36 45 -43 56 -9 12 -17 57 -21 112
l-6 91 -42 61 -43 60 -8 101 c-7 91 -11 106 -37 138 -60 76 -64 86 -64 170 0
83 1 81 -64 174 -25 36 -29 53 -35 140 l-7 99 -41 46 c-45 51 -53 78 -53 172
0 75 -13 109 -49 123 -30 13 -340 20 -391 10z"/>
<path d="M16220 7880 c-11 -11 -20 -28 -20 -37 0 -10 0 -381 -1 -826 l0 -807
18 -30 c9 -17 26 -33 38 -37 37 -12 268 -9 296 4 15 7 32 26 38 44 6 18 11
101 11 194 0 140 2 166 18 184 23 29 79 37 124 18 29 -12 39 -23 47 -54 6 -21
11 -49 11 -62 0 -14 16 -38 44 -65 24 -22 52 -57 61 -76 25 -49 123 -178 143
-188 9 -4 102 -7 206 -7 161 1 191 4 199 17 8 11 1 44 -24 119 l-34 103 -42
29 c-35 23 -46 38 -59 83 -8 30 -26 67 -38 82 -12 15 -33 45 -45 67 -12 22
-37 50 -56 63 -48 31 -48 70 -1 109 19 15 44 46 57 68 12 22 33 51 45 65 13
14 28 39 35 55 16 40 23 323 11 452 l-9 102 -52 56 c-28 31 -51 60 -51 65 0 5
-14 17 -30 27 -17 10 -42 35 -57 55 -20 30 -37 42 -80 54 -32 9 -72 31 -99 55
l-45 39 -320 0 -319 0 -20 -20z m530 -390 c10 -5 48 -39 84 -75 l66 -64 0 -96
c0 -53 -5 -105 -11 -116 -6 -11 -31 -29 -57 -40 -26 -11 -63 -36 -82 -54 -47
-45 -87 -53 -123 -25 l-27 21 0 200 c0 123 4 208 11 220 6 11 20 24 32 29 30
12 84 12 107 0z"/>
<path d="M7464 5902 c-58 -6 -69 -30 -69 -152 0 -92 3 -111 19 -129 l19 -21
6962 0 6963 0 23 19 24 19 0 111 0 110 -21 22 -22 21 -6933 2 c-3814 0 -6948
0 -6965 -2z"/>
</g></svg>