<svg xmlns="http://www.w3.org/2000/svg" viewBox="980 540 910 310"><g transform="translate(0.000000,1400.000000) scale(0.100000,-0.100000)"
fill="#ffffff" stroke="none">
<path d="M11130 8390 c-32 -32 -26 -84 19 -159 22 -36 50 -102 62 -146 12 -44
32 -100 44 -125 12 -25 33 -81 45 -125 12 -44 33 -101 46 -127 13 -26 33 -82
44 -125 11 -43 36 -112 55 -153 19 -41 46 -114 60 -162 18 -63 32 -92 51 -107
57 -45 111 -14 143 82 12 34 36 87 55 117 18 30 41 81 50 113 9 32 32 86 50
120 19 34 41 88 50 119 11 39 22 59 36 63 53 17 60 -29 53 -334 -5 -220 -4
-261 10 -294 10 -22 26 -41 42 -47 16 -6 235 -10 573 -10 l547 0 32 20 c56 34
56 102 0 144 l-28 21 -407 2 c-224 1 -415 2 -424 2 -10 1 -32 14 -50 30 l-32
29 3 488 c2 325 -1 498 -8 516 -6 16 -25 37 -43 48 -45 27 -165 28 -225 1 -44
-21 -59 -43 -88 -129 -9 -29 -32 -78 -51 -109 -18 -31 -41 -81 -50 -112 -8
-31 -28 -76 -44 -101 -15 -25 -38 -78 -49 -117 -25 -84 -45 -102 -89 -79 -37
19 -82 104 -117 221 -15 50 -36 107 -46 128 -11 21 -31 80 -44 133 -14 52 -33
106 -42 120 -26 40 -84 64 -153 64 -47 0 -64 -4 -80 -20z"/>
<path d="M10562 8197 c-13 -6 -37 -37 -53 -69 -16 -31 -37 -62 -48 -67 -26
-15 -51 -72 -51 -120 0 -37 3 -41 24 -41 30 0 70 45 86 97 7 21 30 54 51 73
31 27 41 46 48 82 4 26 6 50 3 53 -8 8 -35 5 -60 -8z"/>
<path d="M10956 8181 c-3 -4 -6 -192 -6 -417 -1 -355 -3 -412 -17 -435 -32
-54 -35 -54 -485 -55 -459 -1 -452 0 -478 -63 -10 -25 -10 -37 0 -60 25 -61
23 -61 627 -61 612 0 583 -3 603 70 6 24 9 133 6 292 -4 267 -8 296 -58 408
-14 30 -35 93 -48 140 -29 109 -42 134 -87 165 -41 27 -49 30 -57 16z"/>
<path d="M10122 7877 c-16 -19 -23 -60 -13 -76 11 -18 48 -6 62 21 15 28 3 68
-20 68 -10 0 -23 -6 -29 -13z"/>
<path d="M10336 7828 c-8 -13 -22 -51 -30 -85 -9 -34 -19 -69 -22 -78 -11 -28
24 -16 66 23 l40 39 0 61 c0 55 -2 62 -20 62 -11 0 -26 -10 -34 -22z"/>
<path d="M10034 7656 c-6 -27 12 -70 27 -61 17 11 8 85 -12 85 -5 0 -11 -11
-15 -24z"/>
<path d="M10002 6903 c-56 -27 -55 -95 1 -137 l28 -21 421 -1 420 -2 27 -19
c53 -40 53 -31 48 -542 -3 -282 -1 -487 5 -508 17 -64 107 -95 211 -73 76 15
108 47 137 135 12 39 38 95 57 125 18 30 41 80 50 110 9 30 28 78 44 105 15
28 35 77 44 110 20 69 39 95 70 95 44 0 100 -93 136 -227 12 -43 32 -100 46
-126 13 -26 35 -92 49 -145 32 -123 56 -156 131 -178 117 -34 187 11 161 103
-5 21 -25 63 -44 93 -18 30 -42 87 -52 126 -11 39 -33 102 -50 140 -17 38 -35
89 -42 114 -6 25 -27 81 -46 125 -18 44 -42 114 -53 156 -11 42 -33 101 -50
130 -16 30 -39 86 -49 125 -34 121 -59 154 -117 154 -37 0 -70 -40 -90 -113
-9 -34 -30 -83 -46 -108 -16 -25 -38 -72 -49 -105 -11 -32 -36 -88 -54 -124
-19 -36 -37 -81 -41 -100 -19 -90 -61 -117 -91 -59 -14 27 -16 69 -14 298 1
146 2 276 1 289 0 13 -12 34 -26 47 l-24 25 -558 0 c-492 0 -562 -2 -591 -17z"/>
<path d="M12033 6905 c-12 -8 -26 -30 -31 -48 -13 -46 -15 -421 -2 -525 8 -60
22 -110 45 -162 18 -41 46 -120 61 -175 l28 -99 55 -52 c30 -29 58 -51 62 -48
4 2 6 194 5 426 -3 458 -2 471 50 505 l28 18 403 -2 c260 -2 413 1 431 8 76
29 96 97 41 143 l-31 26 -562 0 c-483 0 -565 -2 -583 -15z"/>
<path d="M13995 6708 l-27 -32 8 -61 c12 -93 9 -156 -11 -208 l-18 -49 19 -51
c15 -42 19 -79 19 -197 l0 -145 41 -3 c35 -3 46 2 70 26 l29 29 -3 314 c-2
173 -8 331 -13 351 -17 65 -71 77 -114 26z"/>
<path d="M13414 6645 c-20 -30 -12 -70 17 -86 42 -22 76 41 49 92 -15 27 -46
24 -66 -6z"/>
<path d="M14307 6652 c-23 -25 -21 -58 4 -83 26 -26 49 -21 69 14 13 24 13 30
0 55 -19 33 -50 39 -73 14z"/>
<path d="M16407 6606 c-71 -30 -84 -40 -92 -76 -14 -62 71 -187 169 -248 59
-37 119 -99 146 -150 8 -16 9 -44 5 -83 -8 -66 -2 -71 58 -45 47 20 78 58 84
105 5 33 -1 54 -26 105 -30 62 -78 109 -214 209 -52 39 -80 97 -75 158 1 27 3
49 3 49 0 0 -26 -11 -58 -24z"/>
<path d="M18522 6428 c-35 -39 -42 -74 -42 -222 0 -127 2 -146 23 -186 15 -31
35 -51 64 -66 76 -39 115 -8 82 65 -24 54 -43 172 -35 216 4 19 22 53 41 75
19 23 35 45 35 49 0 15 -32 51 -64 70 -43 27 -77 27 -104 -1z"/>
<path d="M15145 6403 c-11 -3 -28 -12 -37 -20 -16 -14 -17 -33 -12 -177 6
-199 10 -221 36 -246 24 -22 77 -27 96 -8 8 8 10 49 5 147 l-6 136 27 54 c15
29 25 59 22 66 -12 32 -87 59 -131 48z"/>
<path d="M16923 6395 c-40 -17 -50 -52 -33 -117 9 -35 11 -126 9 -322 l-4
-274 19 -21 c27 -30 81 -28 101 3 13 19 15 39 9 98 -8 95 8 131 72 159 24 11
44 24 44 29 0 5 -20 18 -45 29 -60 27 -75 62 -75 178 0 73 5 97 25 142 l25 54
-16 18 c-9 11 -33 23 -53 29 -44 12 -39 12 -78 -5z"/>
<path d="M18290 6393 c-34 -12 -52 -13 -81 -4 -54 16 -75 14 -106 -13 l-27
-24 16 -68 c11 -50 14 -97 11 -171 -3 -56 -3 -112 0 -125 7 -28 44 -48 86 -48
44 0 55 20 42 80 -16 73 -14 204 3 245 l15 35 59 0 c44 0 63 5 75 18 22 24 21
45 0 64 -29 24 -46 27 -93 11z"/>
<path d="M12993 6386 c-41 -19 -48 -45 -28 -106 13 -40 15 -74 11 -177 -4 -75
-2 -134 3 -142 6 -10 27 -15 60 -15 78 0 81 7 71 147 -13 177 5 217 96 217 43
0 56 4 68 22 l16 22 -18 17 c-25 24 -233 35 -279 15z"/>
<path d="M14290 6387 c-22 -11 -25 -18 -22 -62 2 -28 4 -121 6 -207 1 -86 5
-160 9 -165 5 -4 26 -8 49 -8 30 0 45 6 59 24 17 21 19 41 19 203 l0 179 -25
24 c-27 28 -57 31 -95 12z"/>
<path d="M15392 6384 c-30 -20 -28 -44 6 -80 62 -64 63 -68 51 -209 l-12 -129
23 -18 c27 -22 73 -17 104 11 l18 16 -7 150 c-6 129 -11 157 -31 197 -13 26
-34 54 -46 62 -29 20 -77 20 -106 0z"/>
<path d="M17191 6391 c-39 -10 -49 -36 -28 -68 47 -73 52 -94 49 -210 l-2
-113 23 0 c40 0 63 27 91 106 30 84 30 107 -6 201 -25 69 -71 99 -127 84z"/>
<path d="M12707 6373 c-44 -50 -25 -117 37 -128 74 -14 100 19 66 84 -30 60
-72 77 -103 44z"/>
<path d="M13389 6369 c-16 -16 -19 -27 -14 -47 4 -15 9 -101 11 -191 2 -102 7
-168 14 -175 15 -15 99 -14 109 2 4 7 6 97 3 200 -5 213 -10 232 -67 232 -22
0 -43 -8 -56 -21z"/>
<path d="M14619 6369 c-27 -27 -21 -53 13 -57 20 -2 31 4 44 22 13 21 14 29 4
41 -17 21 -36 19 -61 -6z"/>
<path d="M14802 6378 c-7 -7 -12 -38 -12 -76 0 -50 -6 -75 -26 -112 l-26 -48
26 -48 c14 -27 26 -63 26 -81 0 -24 7 -37 25 -49 29 -19 60 -14 98 17 21 16
27 29 27 59 0 21 -5 51 -11 67 -6 15 -12 72 -13 126 -2 80 -6 103 -23 125 -22
30 -70 41 -91 20z"/>
<path d="M16025 6369 c-5 -15 3 -34 27 -67 l33 -47 5 -119 c4 -99 8 -121 23
-130 29 -19 69 12 95 74 17 43 22 69 19 115 -5 77 -25 115 -83 160 -56 42
-108 48 -119 14z"/>
<path d="M17779 6374 c-11 -13 -10 -23 4 -60 55 -142 52 -127 39 -206 -7 -41
-10 -82 -6 -91 10 -26 61 -21 90 8 32 32 74 122 74 159 0 42 -34 107 -84 160
-32 35 -50 46 -73 46 -17 0 -37 -7 -44 -16z"/>
<path d="M12527 6369 c-9 -6 -33 -41 -52 -79 -41 -82 -45 -133 -15 -213 24
-63 45 -85 119 -122 62 -31 105 -35 129 -12 19 20 12 30 -39 55 -24 12 -44 35
-66 77 -37 69 -41 102 -14 136 37 49 43 68 31 104 -11 34 -43 65 -65 65 -5 0
-18 -5 -28 -11z"/>
<path d="M15773 6315 c-65 -69 -79 -112 -58 -182 25 -85 124 -177 171 -159 13
5 15 15 10 47 -4 22 -18 64 -33 92 -34 67 -35 120 -4 178 50 93 -6 108 -86 24z"/>
<path d="M17528 6358 c-26 -19 -71 -137 -70 -183 0 -54 39 -152 65 -170 28
-17 93 -30 100 -18 2 4 0 35 -6 68 -6 33 -11 116 -11 185 l-1 125 -30 3 c-16
2 -38 -3 -47 -10z"/>
<path d="M13754 6330 c-64 -26 -107 -140 -86 -231 16 -70 41 -100 110 -137
101 -54 153 -38 84 26 -34 32 -42 47 -57 114 -14 64 -15 88 -6 148 14 91 8
102 -45 80z"/>
<path d="M14593 6100 c-31 -13 -56 -55 -48 -80 8 -24 91 -90 115 -90 9 0 24 6
34 13 l18 13 -24 75 c-22 63 -29 74 -49 76 -13 1 -34 -2 -46 -7z"/>
<path d="M16340 6041 c0 -24 15 -35 36 -27 12 4 13 10 4 26 -14 26 -40 26 -40
1z"/>
</g></svg>