<svg width="168" height="71" viewBox="0 0 168 71" fill="none" xmlns="http://www.w3.org/2000/svg">
<g clip-path="url(#clip0_1613_10356)">
<path fill-rule="evenodd" clip-rule="evenodd" d="M83.8647 31.3938H85.826V34.2978H78.4829V31.3938H80.4446V19.1914H77.8042V21.8408H75.0882V16.109H89.2209V21.8408H86.5051V19.1914H83.8647V31.3938Z" fill="#FFFFFF"/>
<path d="M100.461 32.4638C99.4808 33.9668 97.8965 34.6545 96.136 34.6545C92.2886 34.6545 89.2458 31.4193 89.2458 27.5725C89.2458 23.6239 92.364 20.3377 96.287 20.3377C98.0222 20.3377 99.5309 21.1529 100.461 22.6304V20.6944H105.265V23.5984H103.58V31.3938H105.265V34.2978H100.461V32.4638ZM100.512 27.4198C100.512 25.1781 98.6761 23.3693 96.4632 23.3693C94.1747 23.3693 92.4145 25.28 92.4145 27.5726C92.4145 29.7889 94.2502 31.6232 96.4128 31.6232C98.7263 31.6232 100.512 29.738 100.512 27.4198Z" fill="#FFFFFF"/>
<path fill-rule="evenodd" clip-rule="evenodd" d="M110.897 31.3938H112.632V34.2978H105.968V31.3938H107.829V19.0131H106.094V16.109H110.897V31.3938Z" fill="#FFFFFF"/>
<path d="M126.815 30.2985C125.759 32.8969 123.269 34.6546 120.478 34.6546C116.555 34.6546 113.412 31.5467 113.412 27.5472C113.412 23.5222 116.404 20.2869 120.402 20.2869C122.263 20.2869 124.124 21.1275 125.432 22.4777C126.765 23.9043 127.318 25.6366 127.318 27.5726L127.217 28.668H116.354C116.756 30.5532 118.466 31.9288 120.377 31.9288C121.71 31.9288 122.867 31.4194 123.621 30.2985H126.815ZM124.476 26.2733C123.948 24.3118 122.238 23.0636 120.252 23.0636C118.441 23.0636 116.706 24.4901 116.329 26.2733H124.476Z" fill="#FFFFFF"/>
<path fill-rule="evenodd" clip-rule="evenodd" d="M129.832 23.5985H128.097V20.6945H132.9V22.6305C133.705 21.1275 135.214 20.3888 136.873 20.3888C138.332 20.3888 139.765 21.0002 140.746 22.0701C141.853 23.3183 141.878 24.5156 141.878 26.0695V31.3938H143.613V34.298H137.075V31.3938H138.81V26.9867C138.81 26.146 138.81 25.2798 138.282 24.5411C137.729 23.8023 136.823 23.4457 135.918 23.4457C134.988 23.4457 134.032 23.8278 133.479 24.592C132.9 25.3563 132.9 26.5281 132.9 27.4453V31.3938H134.635V34.298H128.097L128.097 31.3938H129.832L129.832 23.5985Z" fill="#FFFFFF"/>
<path fill-rule="evenodd" clip-rule="evenodd" d="M149.246 31.3938H151.685V34.2978H146.178V23.5987H144.065V20.6944H146.178V16.109H149.246V20.6944H151.534V23.5987H149.246V31.3938Z" fill="#FFFFFF"/>
<path fill-rule="evenodd" clip-rule="evenodd" d="M93.496 55.2558H90.6544V52.4535C89.2712 54.5424 86.8823 55.6123 84.4178 55.6123C79.2375 55.6123 75.0882 51.358 75.0882 46.1103C75.0882 43.6392 75.9432 41.3465 77.6281 39.5379C79.3633 37.7036 81.878 36.5827 84.3676 36.5827C86.5302 36.5827 88.3912 37.3215 90.0257 38.748V37.0669H92.8421V42.4166H89.1202C88.5418 41.6269 87.8628 41.0409 87.0834 40.6587C86.3037 40.2512 85.4236 40.0475 84.443 40.0475C81.0983 40.0475 78.5333 42.6967 78.5333 46.0595C78.5333 49.3966 81.0983 52.1478 84.4177 52.1478C86.8068 52.1478 88.8185 50.8232 89.6989 48.5813H83.0599V45.6518H93.4958L93.496 55.2558Z" fill="#FFFFFF"/>
<path d="M105.717 53.4216C104.737 54.9246 103.152 55.6123 101.392 55.6123C97.5443 55.6123 94.5015 52.3771 94.5015 48.5304C94.5015 44.5818 97.6199 41.2956 101.543 41.2956C103.278 41.2956 104.787 42.1108 105.717 43.5883V41.6522H110.52V44.5562H108.835V52.3515H110.52V55.2556H105.717V53.4216ZM105.768 48.3777C105.768 46.1359 103.932 44.3271 101.719 44.3271C99.4305 44.3271 97.6704 46.2378 97.6704 48.5305C97.6704 50.7468 99.5061 52.581 101.669 52.581C103.982 52.581 105.768 50.6957 105.768 48.3777Z" fill="#FFFFFF"/>
<path fill-rule="evenodd" clip-rule="evenodd" d="M115.801 43.9705C116.581 42.3655 118.089 41.5759 119.824 41.4995V44.6836C118.844 44.7346 117.939 44.9893 117.184 45.6773C116.178 46.5434 116.027 47.6389 116.027 48.9126V52.3516H117.763V55.2557H111.224V52.3516H112.959V44.5564H111.224V41.6523H115.801L115.801 43.9705Z" fill="#FFFFFF"/>
<path d="M132.045 53.2177C131.04 54.7462 129.43 55.4595 127.645 55.4595C123.898 55.4595 120.805 52.2242 120.805 48.454C120.805 44.6581 123.822 41.4229 127.62 41.4229C129.33 41.4229 130.989 42.2381 132.046 43.6392V39.9709H130.285V37.0667H135.114V52.3515H136.849V55.2556H132.046L132.045 53.2177ZM132.121 48.4031C132.121 46.1614 130.285 44.327 128.097 44.327C125.809 44.327 123.998 46.1867 123.998 48.505C123.998 50.7466 125.809 52.6064 128.047 52.6064C130.335 52.6064 132.121 50.6957 132.121 48.4031Z" fill="#FFFFFF"/>
<path d="M150.83 51.2563C149.774 53.8547 147.284 55.6124 144.493 55.6124C140.57 55.6124 137.426 52.5046 137.426 48.5049C137.426 44.48 140.419 41.2446 144.417 41.2446C146.278 41.2446 148.139 42.0853 149.447 43.4353C150.78 44.862 151.333 46.5942 151.333 48.5304L151.232 49.6258H140.369C140.771 51.511 142.481 52.8866 144.392 52.8866C145.725 52.8866 146.882 52.3771 147.636 51.2562L150.83 51.2563ZM148.491 47.2313C147.963 45.2697 146.253 44.0215 144.266 44.0215C142.456 44.0215 140.721 45.4481 140.343 47.2313H148.491Z" fill="#FFFFFF"/>
<path fill-rule="evenodd" clip-rule="evenodd" d="M152.112 44.5564V41.6523H156.915V43.5884C157.72 42.0854 159.229 41.3466 160.888 41.3466C162.347 41.3466 163.78 41.958 164.761 43.0279C165.868 44.2763 165.893 45.4735 165.893 47.0274V52.3516H167.628V55.2557H161.09V52.3516H162.825V47.9446C162.825 47.1038 162.825 46.2377 162.297 45.4989C161.743 44.7602 160.838 44.4036 159.933 44.4036C159.002 44.4036 158.047 44.7857 157.494 45.5499C156.915 46.3141 156.915 47.4859 156.915 48.4031V52.3516H158.65V55.2557H152.112L152.112 52.3516H153.847V44.5564H152.112Z" fill="#FFFFFF"/>
<path fill-rule="evenodd" clip-rule="evenodd" d="M66.6884 37.1482C66.6884 55.775 51.7712 70.8751 33.3694 70.8751C14.9681 70.8751 0.050354 55.775 0.050354 37.1482C0.050354 18.5218 14.9681 3.42178 33.3694 3.42178C51.7712 3.42178 66.6884 18.5218 66.6884 37.1482Z" fill="#F17B68"/>
<path fill-rule="evenodd" clip-rule="evenodd" d="M49.6342 1.18752C40.8483 1.01259 33.6172 6.49263 33.4805 13.4282C33.4343 15.8394 34.2517 18.1086 35.7065 20.0511C38.2092 23.3059 35.4782 28.9011 35.4782 28.9011L43.5415 25.3848C45.2794 25.9411 47.167 26.2651 49.1455 26.3044C57.9317 26.4799 65.164 20.9985 65.2991 14.0632C65.4339 7.12682 58.421 1.36255 49.6342 1.18752Z" fill="white"/>
<path d="M33.0682 31.2162L34.4495 28.3871C35.1178 27.008 36.4826 22.9514 34.8023 20.7646C33.134 18.537 32.2834 15.9963 32.3337 13.4057C32.4826 5.78598 40.1172 -0.168665 49.6579 0.0266426C54.1612 0.116457 58.379 1.59493 61.5354 4.1888C64.774 6.85088 66.5176 10.366 66.4448 14.0863C66.2999 21.5906 58.8796 27.4697 49.5554 27.4697C49.4036 27.4536 49.2675 27.4682 49.1234 27.4655C47.229 27.4277 45.3759 27.1431 43.6099 26.6196L33.0682 31.2162ZM49.2258 2.34458C41.296 2.34458 34.7487 7.32683 34.6278 13.4515C34.5875 15.515 35.2762 17.5546 36.6209 19.3502C38.3419 21.5883 38.0248 24.6226 37.4557 26.7741L43.4799 24.1479L43.8875 24.2781C45.5684 24.8156 47.3449 25.1071 49.1684 25.1438C57.2497 25.2937 64.0307 20.2644 64.152 14.0404C64.2109 11.0512 62.7673 8.1925 60.0891 5.99125C57.3282 3.72181 53.6062 2.42801 49.611 2.3485C49.4831 2.34581 49.3533 2.34458 49.2258 2.34458Z" fill="#F17B68"/>
<path fill-rule="evenodd" clip-rule="evenodd" d="M44.7022 12.0657C43.7368 12.0657 42.9539 12.8578 42.9539 13.8357C42.9539 14.8136 43.7368 15.6055 44.7022 15.6055C45.6687 15.6055 46.4515 14.8136 46.4515 13.8357C46.4515 12.8578 45.6686 12.0657 44.7022 12.0657Z" fill="#F17B68"/>
<path fill-rule="evenodd" clip-rule="evenodd" d="M49.6964 12.0657C48.7309 12.0657 47.9481 12.8578 47.9481 13.8357C47.9481 14.8136 48.7309 15.6055 49.6964 15.6055C50.6618 15.6055 51.4449 14.8136 51.4449 13.8357C51.4449 12.8578 50.6618 12.0657 49.6964 12.0657Z" fill="#F17B68"/>
<path fill-rule="evenodd" clip-rule="evenodd" d="M54.6907 12.0657C53.7246 12.0657 52.9413 12.8578 52.9413 13.8357C52.9413 14.8136 53.7246 15.6055 54.6907 15.6055C55.6567 15.6055 56.4391 14.8136 56.4391 13.8357C56.4391 12.8578 55.6567 12.0657 54.6907 12.0657Z" fill="#F17B68"/>
<path fill-rule="evenodd" clip-rule="evenodd" d="M16.8791 40.8968H19.5493V44.0738H13.5204V32.3689H11.207V29.1914H13.5204V24.1756H16.8791V29.1914H19.3846V32.3689H16.8791V40.8968Z" fill="white"/>
<path d="M32.296 42.0667C31.2223 43.7116 29.487 44.464 27.5606 44.464C23.3483 44.464 20.0167 40.9247 20.0167 36.7161C20.0167 32.397 23.4297 28.8015 27.725 28.8015C29.6247 28.8015 31.2765 29.6939 32.296 31.3095V29.1915H37.5538V32.3688H35.7088V40.8967H37.5538V44.0737H32.296V42.0667ZM32.3506 36.5495C32.3506 34.0967 30.341 32.118 27.9178 32.118C25.4132 32.118 23.4856 34.2082 23.4856 36.7161C23.4856 39.1411 25.4958 41.1471 27.863 41.1471C30.3957 41.1472 32.3506 39.0854 32.3506 36.5495Z" fill="white"/>
<path d="M42.8934 45.3557C43.4719 46.6094 44.9027 47.1953 46.1973 47.1953C47.3528 47.1953 48.5654 46.6929 49.3083 45.83C50.2442 44.7145 50.3274 43.7681 50.3274 42.3743V41.8162C49.2812 43.5442 47.6014 44.2974 45.6189 44.2974C41.4343 44.2974 38.1863 40.7575 38.1863 36.6052C38.1863 32.5083 41.572 28.941 45.6458 28.941C47.6287 28.941 49.4454 29.6383 50.5468 31.3654V29.1917H55.5301V32.3689H53.6307V42.0953C53.6307 44.3803 53.4661 46.1638 51.7855 47.8647C50.2165 49.4249 48.2063 50.1217 46.0327 50.1217C42.9757 50.1217 39.7823 48.5888 39.0113 45.3558L42.8934 45.3557ZM46.1138 41.1471C48.6468 41.1471 50.5744 39.0569 50.5744 36.5495C50.5744 34.0693 48.5364 32.0627 46.0875 32.0627C43.6365 32.0627 41.6269 34.0968 41.6269 36.5773C41.6269 39.1132 43.6099 41.1471 46.1138 41.1471Z" fill="white"/>
</g>
<defs>
<clipPath id="clip0_1613_10356">
<rect width="168" height="71" fill="white"/>
</clipPath>
</defs>
</svg>
